<svg xmlns="http://www.w3.org/2000/svg" width="240" height="81" viewBox="0 0 240 81" fill="none"><path d="M220.887 0.000200561H19.1229C18.3874 0.000200561 17.6608 0.000200561 16.9271 0.00421178C16.3132 0.008223 15.7041 0.0198555 15.0842 0.029683C13.7374 0.0455246 12.3939 0.163998 11.0651 0.384074C9.73827 0.608942 8.45296 1.03289 7.25268 1.64159C6.05392 2.25546 4.95858 3.05311 4.0064 4.0056C3.04922 4.95534 2.25133 6.05311 1.6434 7.25669C1.03378 8.458 0.611075 9.74532 0.38989 11.0742C0.166588 12.4013 0.0464266 13.7437 0.0304853 15.0894C0.0118331 15.7043 0.00982748 16.3212 0 16.9364V63.2944C0.00982748 63.9172 0.0118331 64.5204 0.0304853 65.1436C0.0464417 66.4891 0.166603 67.8314 0.38989 69.1584C0.61048 70.488 1.03321 71.776 1.6434 72.9777C2.25104 74.1775 3.04904 75.2708 4.0064 76.2153C4.95498 77.172 6.05102 77.9702 7.25268 78.5794C8.45295 79.1897 9.73812 79.6162 11.0651 79.8445C12.3941 80.0628 13.7375 80.1813 15.0842 80.1991C15.7039 80.2127 16.3132 80.2206 16.9273 80.2206C17.6608 80.2246 18.3874 80.2246 19.1229 80.2246H220.887C221.608 80.2246 222.341 80.2246 223.061 80.2206C223.673 80.2206 224.299 80.2127 224.91 80.1991C226.255 80.1823 227.595 80.0638 228.922 79.8445C230.253 79.6145 231.543 79.1882 232.749 78.5794C233.949 77.9699 235.044 77.1717 235.992 76.2153C236.947 75.2671 237.747 74.1746 238.362 72.9777C238.968 71.7751 239.386 70.4872 239.603 69.1584C239.827 67.8312 239.952 66.4891 239.976 65.1434C239.984 64.5204 239.984 63.9172 239.984 63.2944C240 62.5658 240 61.8411 240 61.1007V19.1261C240 18.3914 240 17.663 239.984 16.9364C239.984 16.3212 239.984 15.7043 239.976 15.0892C239.952 13.7434 239.827 12.4013 239.604 11.074C239.386 9.74602 238.967 8.45895 238.362 7.2569C237.124 4.84423 235.161 2.88032 232.749 1.64139C231.543 1.03419 230.253 0.610347 228.922 0.383874C227.596 0.162862 226.255 0.0443805 224.91 0.0294825C224.299 0.019655 223.673 0.00782188 223.061 0.00401122C222.341 0 221.608 0.000200561 220.887 0.000200561Z" fill="#A6A6A6"></path><path d="M16.9361 78.4687C16.325 78.4687 15.7287 78.4608 15.1224 78.4472C13.8665 78.4309 12.6135 78.3216 11.3737 78.1203C10.2177 77.9211 9.0978 77.5507 8.05102 77.0212C7.0138 76.4962 6.06778 75.8078 5.24919 74.9823C4.41868 74.1666 3.72724 73.2205 3.20226 72.1815C2.67156 71.1357 2.30428 70.0148 2.11322 68.8578C1.90695 67.6145 1.79539 66.3574 1.77948 65.0973C1.76665 64.6743 1.75 63.2661 1.75 63.2661V16.9352C1.75 16.9352 1.76765 15.5485 1.77948 15.1409C1.79476 13.8828 1.90573 12.6277 2.11141 11.3864C2.30285 10.2262 2.67044 9.10209 3.20146 8.05292C3.72442 7.01462 4.41193 6.06777 5.23735 5.24908C6.0619 4.42262 7.01099 3.73063 8.05002 3.19835C9.09442 2.67067 10.2122 2.30294 11.3659 2.1075C12.6098 1.90417 13.8671 1.79429 15.1274 1.77878L16.9371 1.75391H223.051L224.882 1.77938C226.131 1.79421 227.377 1.90323 228.609 2.10549C229.775 2.30344 230.904 2.67379 231.961 3.20436C234.042 4.27703 235.736 5.97411 236.804 8.05774C237.327 9.09972 237.689 10.2147 237.878 11.365C238.086 12.6164 238.202 13.8814 238.226 15.1498C238.232 15.7178 238.232 16.3279 238.232 16.9352C238.248 17.6873 238.248 18.4031 238.248 19.1249V61.0995C238.248 61.8281 238.248 62.5391 238.232 63.2559C238.232 63.9081 238.232 64.5056 238.224 65.1205C238.201 66.3664 238.086 67.6088 237.881 68.8379C237.694 70.0033 237.329 71.133 236.798 72.1873C236.27 73.215 235.582 74.1529 234.761 74.9665C233.942 75.7963 232.994 76.4888 231.955 77.0172C230.901 77.5507 229.774 77.9224 228.609 78.1199C227.37 78.3224 226.117 78.4317 224.861 78.447C224.261 78.461 223.661 78.4682 223.061 78.4685L220.887 78.4725L16.9361 78.4687Z" fill="black"></path><path d="M49.6768 40.7141C49.6984 39.0401 50.143 37.3988 50.9694 35.9428C51.7957 34.4869 52.9769 33.2636 54.403 32.3868C53.497 31.0929 52.3018 30.028 50.9123 29.2768C49.5228 28.5256 47.9772 28.1087 46.3984 28.0593C43.0304 27.7057 39.7655 30.0745 38.0491 30.0745C36.2998 30.0745 33.6574 28.0944 30.812 28.1529C28.9715 28.2124 27.1778 28.7475 25.6056 29.7063C24.0334 30.6651 22.7364 32.0148 21.8409 33.6238C17.9621 40.3396 20.8554 50.2092 24.5712 55.6376C26.4302 58.2958 28.6027 61.2649 31.4456 61.1596C34.2274 61.0443 35.2663 59.3857 38.6245 59.3857C41.9514 59.3857 42.9261 61.1596 45.8266 61.0927C48.8118 61.0443 50.6924 58.4228 52.4863 55.7395C53.8219 53.8455 54.8497 51.7522 55.5316 49.5371C53.7973 48.8036 52.3173 47.5758 51.2762 46.0068C50.235 44.4378 49.6788 42.5971 49.6768 40.7141ZM44.1983 24.4891C45.8259 22.5352 46.6277 20.0238 46.4335 17.4883C43.9469 17.7495 41.6499 18.9379 40.0003 20.8168C39.1938 21.7347 38.5761 22.8026 38.1825 23.9594C37.7889 25.1161 37.6272 26.3391 37.7065 27.5585C38.9503 27.5713 40.1808 27.3017 41.3052 26.77C42.4297 26.2384 43.4189 25.4585 44.1983 24.4891ZM84.8419 54.4304H75.3486L73.0688 61.1621H69.0476L78.0397 36.2564H82.2174L91.2094 61.1621H87.1197L84.8419 54.4304ZM76.3317 51.3239H83.8568L80.1472 40.399H80.0433L76.3317 51.3239ZM110.629 52.0841C110.629 57.7266 107.609 61.352 103.051 61.352C101.897 61.4124 100.748 61.1465 99.7378 60.5846C98.7274 60.0228 97.8956 59.1877 97.3377 58.1751H97.2515V67.169H93.5242V43.0039H97.1321V46.0241H97.2007C97.7842 45.0164 98.6301 44.1857 99.6482 43.6204C100.666 43.0551 101.819 42.7764 102.982 42.8139C107.591 42.8139 110.629 46.4571 110.629 52.0841ZM106.798 52.0841C106.798 48.4078 104.898 45.9908 101.999 45.9908C99.1514 45.9908 97.236 48.4585 97.236 52.0839C97.236 55.7427 99.1514 58.1929 101.999 58.1929C104.898 58.1929 106.798 55.7938 106.798 52.0841ZM130.614 52.0841C130.614 57.7266 127.594 61.352 123.037 61.352C121.882 61.4124 120.734 61.1464 119.723 60.5846C118.713 60.0227 117.881 59.1877 117.323 58.1751H117.237V67.169H113.51V43.0039H117.118V46.0241H117.186C117.77 45.0164 118.616 44.1857 119.634 43.6204C120.652 43.0551 121.804 42.7764 122.968 42.8139C127.577 42.8139 130.614 46.4571 130.614 52.0841ZM126.783 52.0841C126.783 48.4078 124.884 45.9908 121.985 45.9908C119.137 45.9908 117.221 48.4585 117.221 52.0839C117.221 55.7427 119.137 58.1929 121.985 58.1929C124.884 58.1929 126.783 55.7938 126.783 52.0841ZM143.823 54.2228C144.099 56.6926 146.499 58.3143 149.777 58.3143C152.919 58.3143 155.179 56.6926 155.179 54.4655C155.179 52.5323 153.816 51.3749 150.588 50.5817L147.36 49.8041C142.787 48.6994 140.664 46.5606 140.664 43.0899C140.664 38.7927 144.409 35.8412 149.726 35.8412C154.989 35.8412 158.597 38.7927 158.718 43.0899H154.956C154.731 40.6046 152.676 39.1042 149.673 39.1042C146.671 39.1042 144.617 40.6222 144.617 42.8314C144.617 44.5923 145.929 45.6284 149.139 46.4214L151.883 47.0953C156.993 48.3037 159.116 50.3564 159.116 53.9992C159.116 58.6589 155.404 61.5772 149.501 61.5772C143.978 61.5772 140.249 58.7272 140.008 54.2226L143.823 54.2228ZM167.16 38.7069V43.0039H170.613V45.9555H167.16V55.9659C167.16 57.5211 167.851 58.2457 169.369 58.2457C169.779 58.2385 170.188 58.2098 170.595 58.1595V61.0937C169.913 61.2211 169.219 61.2787 168.525 61.2657C164.849 61.2657 163.415 59.8851 163.415 56.3634V45.9555H160.775V43.0039H163.415V38.7069H167.16ZM172.613 52.0841C172.613 46.3707 175.978 42.7806 181.225 42.7806C186.49 42.7806 189.839 46.3707 189.839 52.0841C189.839 57.8129 186.507 61.3873 181.225 61.3873C175.944 61.3873 172.613 57.8129 172.613 52.0841ZM186.041 52.0841C186.041 48.1649 184.245 45.8516 181.225 45.8516C178.205 45.8516 176.41 48.1824 176.41 52.0841C176.41 56.0189 178.205 58.3143 181.225 58.3143C184.245 58.3143 186.041 56.0189 186.041 52.0841ZM192.912 43.0039H196.467V46.0945H196.553C196.793 45.1292 197.359 44.2762 198.154 43.6788C198.95 43.0813 199.927 42.7759 200.921 42.8139C201.35 42.8124 201.778 42.859 202.198 42.9529V46.4393C201.655 46.2736 201.09 46.1975 200.523 46.214C199.981 46.1921 199.442 46.2875 198.94 46.4939C198.439 46.7002 197.989 47.0126 197.62 47.4095C197.251 47.8064 196.972 48.2784 196.803 48.7932C196.634 49.308 196.578 49.8533 196.639 50.3917V61.1621H192.912V43.0039ZM219.382 55.8287C218.881 59.1252 215.671 61.3873 211.564 61.3873C206.281 61.3873 203.002 57.8482 203.002 52.1701C203.002 46.4746 206.299 42.7806 211.407 42.7806C216.431 42.7806 219.59 46.2317 219.59 51.7373V53.0143H206.765V53.2395C206.706 53.9078 206.789 54.581 207.01 55.2144C207.231 55.8479 207.584 56.4271 208.046 56.9136C208.508 57.4 209.069 57.7826 209.69 58.036C210.311 58.2893 210.979 58.4075 211.65 58.3829C212.53 58.4654 213.414 58.2615 214.17 57.8013C214.925 57.3411 215.512 56.6493 215.843 55.8287H219.382ZM206.783 50.4094H215.861C215.894 49.8085 215.803 49.2072 215.593 48.6432C215.383 48.0792 215.059 47.5646 214.641 47.1319C214.222 46.6991 213.719 46.3575 213.163 46.1284C212.606 45.8993 212.008 45.7878 211.407 45.8007C210.8 45.7971 210.198 45.9137 209.636 46.1439C209.075 46.374 208.564 46.7131 208.134 47.1416C207.704 47.57 207.364 48.0794 207.132 48.6403C206.9 49.2011 206.781 49.8024 206.783 50.4094ZM75.8646 17.5098C76.6461 17.4537 77.4302 17.5717 78.1605 17.8554C78.8908 18.1391 79.549 18.5813 80.0876 19.1501C80.6263 19.719 81.032 20.4003 81.2755 21.1449C81.519 21.8896 81.5941 22.679 81.4956 23.4562C81.4956 27.2793 79.4292 29.477 75.8646 29.477H71.5419V17.5096L75.8646 17.5098ZM73.4007 27.7845H75.657C76.2154 27.8179 76.7742 27.7263 77.2927 27.5165C77.8112 27.3066 78.2764 26.9838 78.6544 26.5715C79.0324 26.1593 79.3138 25.6679 79.478 25.1332C79.6421 24.5984 79.685 24.0338 79.6035 23.4805C79.6791 22.9293 79.6319 22.3682 79.4652 21.8374C79.2985 21.3066 79.0165 20.8192 78.6393 20.4102C78.2621 20.0012 77.7992 19.6807 77.2836 19.4716C76.768 19.2625 76.2126 19.1701 75.657 19.2009H73.4007V27.7845ZM83.5953 24.9574C83.5385 24.3639 83.6063 23.7651 83.7945 23.1994C83.9827 22.6336 84.2871 22.1135 84.6881 21.6723C85.0891 21.2311 85.5779 20.8786 86.1231 20.6373C86.6683 20.3961 87.258 20.2715 87.8542 20.2715C88.4504 20.2715 89.04 20.3961 89.5852 20.6373C90.1305 20.8786 90.6192 21.2311 91.0202 21.6723C91.4212 22.1135 91.7256 22.6336 91.9138 23.1994C92.102 23.7651 92.1699 24.3639 92.1131 24.9574C92.1711 25.5516 92.1041 26.1513 91.9165 26.7181C91.7289 27.2849 91.4247 27.8061 91.0236 28.2483C90.6225 28.6905 90.1333 29.0439 89.5874 29.2857C89.0416 29.5275 88.4512 29.6524 87.8542 29.6524C87.2571 29.6524 86.6667 29.5275 86.1209 29.2857C85.575 29.0439 85.0858 28.6905 84.6847 28.2483C84.2836 27.8061 83.9794 27.2849 83.7918 26.7181C83.6042 26.1513 83.5372 25.5516 83.5953 24.9574ZM90.2799 24.9574C90.2799 22.9997 89.4005 21.8549 87.8572 21.8549C86.3078 21.8549 85.4364 22.9997 85.4364 24.9574C85.4364 26.9307 86.308 28.0667 87.8572 28.0667C89.4005 28.0667 90.2799 26.9229 90.2799 24.9574ZM103.436 29.4768H101.587L99.7204 22.8254H99.5794L97.7208 29.4768H95.8894L93.4001 20.4456H95.2077L96.8257 27.3369H96.9588L98.8156 20.4456H100.525L102.382 27.3369H102.523L104.133 20.4456H105.915L103.436 29.4768ZM108.009 20.4458H109.725V21.8804H109.858C110.084 21.3651 110.465 20.9331 110.948 20.6447C111.431 20.3562 111.992 20.2257 112.553 20.2713C112.993 20.2383 113.434 20.3045 113.844 20.4652C114.255 20.6258 114.624 20.8767 114.924 21.1993C115.224 21.5219 115.448 21.9079 115.578 22.3287C115.709 22.7495 115.744 23.1944 115.679 23.6303V29.4766H113.897V24.0779C113.897 22.6267 113.266 21.9049 111.948 21.9049C111.65 21.891 111.352 21.9418 111.075 22.0538C110.798 22.1657 110.549 22.3363 110.344 22.5536C110.139 22.771 109.984 23.0301 109.888 23.3131C109.793 23.5962 109.76 23.8965 109.792 24.1935V29.4768H108.009V20.4458ZM118.519 16.9201H120.301V29.4768H118.519V16.9201ZM122.779 24.9574C122.722 24.3638 122.79 23.7649 122.978 23.1991C123.167 22.6333 123.471 22.1131 123.872 21.6718C124.273 21.2306 124.762 20.878 125.307 20.6368C125.853 20.3955 126.442 20.2709 127.039 20.2709C127.635 20.2709 128.225 20.3955 128.77 20.6368C129.315 20.878 129.804 21.2306 130.205 21.6718C130.606 22.1131 130.911 22.6333 131.099 23.1991C131.287 23.7649 131.355 24.3638 131.298 24.9574C131.356 25.5515 131.289 26.1511 131.101 26.7177C130.913 27.2843 130.609 27.8053 130.208 28.2473C129.806 28.6893 129.317 29.0425 128.772 29.2842C128.226 29.5259 127.635 29.6508 127.039 29.6508C126.442 29.6508 125.851 29.5259 125.306 29.2842C124.76 29.0425 124.271 28.6893 123.87 28.2473C123.468 27.8053 123.164 27.2843 122.976 26.7177C122.789 26.1511 122.721 25.5515 122.779 24.9574ZM129.464 24.9574C129.464 22.9997 128.584 21.8549 127.041 21.8549C125.492 21.8549 124.62 22.9997 124.62 24.9574C124.62 26.9307 125.492 28.0667 127.041 28.0667C128.584 28.0667 129.464 26.9229 129.464 24.9574ZM133.174 26.9229C133.174 25.2972 134.385 24.3599 136.533 24.2268L138.98 24.0858V23.3062C138.98 22.3523 138.349 21.8138 137.131 21.8138C136.136 21.8138 135.446 22.179 135.249 22.8176H133.523C133.705 21.2663 135.164 20.2715 137.213 20.2715C139.477 20.2715 140.754 21.3986 140.754 23.3062V29.4768H139.038V28.2077H138.897C138.611 28.6629 138.209 29.0341 137.733 29.2832C137.256 29.5323 136.722 29.6505 136.185 29.6257C135.806 29.6651 135.422 29.6246 135.06 29.5069C134.697 29.3892 134.364 29.1968 134.08 28.9422C133.796 28.6875 133.569 28.3763 133.413 28.0285C133.257 27.6807 133.176 27.3041 133.174 26.9229ZM138.98 26.1511V25.396L136.774 25.537C135.531 25.6203 134.966 26.0434 134.966 26.8395C134.966 27.6523 135.672 28.1255 136.641 28.1255C136.925 28.1542 137.212 28.1255 137.485 28.0411C137.758 27.9567 138.011 27.8183 138.229 27.6341C138.447 27.4499 138.626 27.2237 138.755 26.9689C138.884 26.7141 138.96 26.436 138.98 26.1511ZM143.097 24.9574C143.097 22.1036 144.564 20.296 146.845 20.296C147.41 20.2699 147.97 20.4051 148.46 20.6857C148.951 20.9663 149.351 21.3806 149.615 21.8804H149.748V16.9199H151.53V29.4766H149.822V28.0496H149.681C149.398 28.546 148.983 28.9553 148.483 29.233C147.983 29.5108 147.417 29.6465 146.846 29.6255C144.548 29.6255 143.097 27.8178 143.097 24.9574ZM144.938 24.9574C144.938 26.8728 145.841 28.0256 147.351 28.0256C148.853 28.0256 149.781 26.8563 149.781 24.965C149.781 23.083 148.843 21.897 147.351 21.897C145.85 21.897 144.938 23.0575 144.938 24.9574ZM158.904 24.9574C158.848 24.3639 158.916 23.7651 159.104 23.1994C159.292 22.6336 159.596 22.1135 159.997 21.6723C160.398 21.2311 160.887 20.8786 161.432 20.6373C161.978 20.3961 162.567 20.2715 163.163 20.2715C163.76 20.2715 164.349 20.3961 164.894 20.6373C165.44 20.8786 165.928 21.2311 166.329 21.6723C166.73 22.1135 167.035 22.6336 167.223 23.1994C167.411 23.7651 167.479 24.3639 167.422 24.9574C167.48 25.5516 167.413 26.1513 167.226 26.7181C167.038 27.2849 166.734 27.8061 166.333 28.2483C165.932 28.6905 165.443 29.0439 164.897 29.2857C164.351 29.5275 163.76 29.6524 163.163 29.6524C162.566 29.6524 161.976 29.5275 161.43 29.2857C160.884 29.0439 160.395 28.6905 159.994 28.2483C159.593 27.8061 159.289 27.2849 159.101 26.7181C158.913 26.1513 158.846 25.5516 158.904 24.9574ZM165.589 24.9574C165.589 22.9997 164.71 21.8549 163.166 21.8549C161.617 21.8549 160.746 22.9997 160.746 24.9574C160.746 26.9307 161.617 28.0667 163.166 28.0667C164.71 28.0667 165.589 26.9229 165.589 24.9574ZM169.814 20.4458H171.53V21.8804H171.663C171.889 21.3651 172.27 20.9331 172.753 20.6447C173.236 20.3562 173.797 20.2257 174.358 20.2713C174.797 20.2383 175.239 20.3045 175.649 20.4652C176.059 20.6258 176.428 20.8767 176.728 21.1993C177.029 21.5219 177.252 21.9079 177.383 22.3287C177.514 22.7495 177.548 23.1944 177.484 23.6303V29.4766H175.701V24.0779C175.701 22.6267 175.071 21.9049 173.753 21.9049C173.454 21.891 173.156 21.9418 172.88 22.0538C172.603 22.1657 172.353 22.3363 172.148 22.5536C171.944 22.771 171.788 23.0301 171.693 23.3131C171.598 23.5962 171.565 23.8965 171.596 24.1935V29.4768H169.814L169.814 20.4458ZM187.555 18.1973V20.4869H189.512V21.9881H187.555V26.6319C187.555 27.5779 187.945 27.9923 188.832 27.9923C189.059 27.9915 189.286 27.9777 189.511 27.951V29.4357C189.191 29.493 188.867 29.5234 188.542 29.5268C186.56 29.5268 185.771 28.8294 185.771 27.0884V21.9881H184.337V20.4867H185.771V18.1975L187.555 18.1973ZM191.946 16.9201H193.713V21.897H193.854C194.091 21.3769 194.482 20.9425 194.975 20.653C195.468 20.3634 196.038 20.2329 196.608 20.2791C197.045 20.2553 197.482 20.3283 197.887 20.4929C198.293 20.6574 198.658 20.9095 198.955 21.2311C199.252 21.5527 199.474 21.9359 199.606 22.3533C199.738 22.7708 199.776 23.2122 199.718 23.6461V29.4768H197.934V24.0858C197.934 22.6431 197.262 21.9127 196.002 21.9127C195.696 21.8876 195.388 21.9297 195.1 22.0361C194.811 22.1425 194.55 22.3107 194.333 22.5287C194.116 22.7468 193.95 23.0096 193.846 23.2987C193.741 23.5877 193.701 23.8961 193.728 24.2023V29.4768H191.946V16.9201ZM210.11 27.0382C209.868 27.8636 209.343 28.5776 208.628 29.0553C207.913 29.533 207.052 29.7439 206.197 29.6511C205.602 29.6668 205.011 29.5529 204.464 29.3172C203.918 29.0815 203.429 28.7296 203.032 28.2861C202.635 27.8426 202.339 27.318 202.165 26.7488C201.992 26.1796 201.944 25.5793 202.025 24.9897C201.946 24.3982 201.995 23.7967 202.168 23.2257C202.341 22.6547 202.636 22.1277 203.03 21.6803C203.425 21.2329 203.912 20.8755 204.457 20.6324C205.002 20.3893 205.592 20.2662 206.189 20.2713C208.702 20.2713 210.218 21.9881 210.218 24.824V25.446H203.841V25.5458C203.813 25.8773 203.854 26.2109 203.963 26.5252C204.072 26.8396 204.245 27.1278 204.471 27.3714C204.698 27.615 204.972 27.8086 205.278 27.9398C205.584 28.0709 205.913 28.1368 206.246 28.1331C206.672 28.1843 207.104 28.1075 207.487 27.9126C207.869 27.7176 208.185 27.4132 208.394 27.0382H210.11ZM203.841 24.1279H208.402C208.425 23.8248 208.384 23.5203 208.281 23.2341C208.179 22.9479 208.018 22.6862 207.809 22.4659C207.6 22.2455 207.346 22.0714 207.066 21.9547C206.785 21.8381 206.483 21.7814 206.179 21.7883C205.871 21.7845 205.565 21.8423 205.28 21.9585C204.994 22.0747 204.735 22.2469 204.517 22.465C204.299 22.683 204.127 22.9425 204.011 23.2281C203.894 23.5137 203.837 23.8196 203.841 24.1279Z" fill="white"></path></svg>