<svg xmlns="http://www.w3.org/2000/svg" width="240" height="71" viewBox="0 0 240 71" fill="none"><path d="M230.747 71H8.875C3.99372 71 0 67.0063 0 62.125V8.875C0 3.99372 3.99372 0 8.875 0H230.747C235.628 0 239.622 3.99372 239.622 8.875V62.125C239.622 67.0063 235.628 71 230.747 71Z" fill="black"></path><path d="M230.747 0H8.875C3.99372 0 0 3.99372 0 8.875V62.125C0 67.0063 3.99372 71 8.875 71H230.747C235.628 71 239.622 67.0063 239.622 62.125V8.875C239.622 3.99372 235.628 0 230.747 0ZM230.747 1.41928C234.858 1.41928 238.202 4.76413 238.202 8.875V62.125C238.202 66.2359 234.858 69.5807 230.747 69.5807H8.875C4.76413 69.5807 1.42075 66.2359 1.42075 62.125V8.875C1.42075 4.76413 4.76413 1.41928 8.875 1.41928H230.747Z" fill="#A2A2A1"></path><path d="M189.81 53.2495H193.122V31.0583H189.81V53.2495ZM219.642 39.0527L215.846 48.6731H215.732L211.792 39.0527H208.224L214.135 52.4986L210.764 59.9784H214.218L223.326 39.0533L219.642 39.0527ZM200.858 50.7288C199.775 50.7288 198.261 50.1858 198.261 48.8443C198.261 47.1316 200.146 46.475 201.772 46.475C203.228 46.475 203.915 46.7884 204.799 47.2169C204.541 49.2727 202.771 50.7288 200.858 50.7288ZM201.259 38.5673C198.861 38.5673 196.378 39.6239 195.35 41.9649L198.29 43.1921C198.918 41.9648 200.088 41.5655 201.316 41.5655C203.029 41.5655 204.77 42.5924 204.798 44.4201V44.6481C204.198 44.3056 202.913 43.7919 201.344 43.7919C198.174 43.7919 194.949 45.5328 194.949 48.7874C194.949 51.7564 197.548 53.6693 200.459 53.6693C202.685 53.6693 203.914 52.6702 204.683 51.4992H204.798V53.2131H207.997V44.7049C207.997 40.7652 205.054 38.5673 201.259 38.5673ZM180.789 41.754H176.078V34.148H180.789C183.265 34.148 184.671 36.1976 184.671 37.9509C184.671 39.6705 183.265 41.754 180.789 41.754ZM180.704 31.0588H172.768V53.25H176.079V44.8431H180.704C184.375 44.8431 187.984 42.1861 187.984 37.9517C187.984 33.7181 184.375 31.0588 180.704 31.0588ZM137.428 50.7326C135.14 50.7326 133.225 48.816 133.225 46.1862C133.225 43.5258 135.14 41.5822 137.428 41.5822C139.687 41.5822 141.46 43.5259 141.46 46.1862C141.46 48.816 139.687 50.7326 137.428 50.7326ZM141.231 40.2949H141.117C140.373 39.4086 138.943 38.6079 137.142 38.6079C133.367 38.6079 129.907 41.9256 129.907 46.1862C129.907 50.4178 133.367 53.7064 137.142 53.7064C138.943 53.7064 140.373 52.9055 141.117 51.991H141.231V53.0768C141.231 55.9661 139.687 57.5094 137.199 57.5094C135.17 57.5094 133.911 56.0513 133.396 54.8218L130.508 56.0227C131.337 58.0236 133.538 60.4839 137.199 60.4839C141.089 60.4839 144.378 58.1956 144.378 52.619V39.0652H141.231L141.231 40.2949ZM146.666 53.2488H149.981V31.0576H146.666V53.2488ZM154.872 45.9283C154.786 43.0114 157.132 41.5247 158.818 41.5247C160.134 41.5247 161.248 42.1827 161.622 43.1257L154.872 45.9283ZM165.166 43.4114C164.537 41.7252 162.621 38.6079 158.704 38.6079C154.814 38.6079 151.583 41.6676 151.583 46.1572C151.583 50.3895 154.786 53.7065 159.075 53.7065C162.535 53.7065 164.537 51.5911 165.367 50.361L162.793 48.645C161.935 49.9034 160.763 50.7327 159.075 50.7327C157.389 50.7327 156.187 49.9604 155.416 48.4447L165.509 44.27L165.166 43.4114ZM84.7445 40.9243V44.127H92.4081C92.1793 45.9285 91.5788 47.2437 90.6635 48.1589C89.548 49.2738 87.8036 50.5038 84.7444 50.5038C80.0259 50.5038 76.3373 46.7008 76.3373 41.9824C76.3373 37.2641 80.0259 33.4605 84.7444 33.4605C87.2895 33.4605 89.1479 34.4616 90.5206 35.7484L92.7803 33.4888C90.8638 31.659 88.3192 30.2578 84.7444 30.2578C78.2808 30.2578 72.8477 35.5196 72.8477 41.9824C72.8477 48.4446 78.2808 53.7065 84.7444 53.7065C88.2326 53.7065 90.8639 52.5625 92.9225 50.418C95.0387 48.3018 95.6966 45.3279 95.6966 42.9255C95.6966 42.1828 95.6389 41.4965 95.5246 40.9243H84.7445ZM104.41 50.7326C102.122 50.7326 100.149 48.8452 100.149 46.1572C100.149 43.4406 102.122 41.5824 104.41 41.5824C106.698 41.5824 108.671 43.4406 108.671 46.1572C108.671 48.8452 106.698 50.7326 104.41 50.7326ZM104.41 38.6079C100.234 38.6079 96.8317 41.7819 96.8317 46.1572C96.8317 50.5038 100.234 53.7065 104.41 53.7065C108.585 53.7065 111.988 50.5038 111.988 46.1572C111.988 41.7819 108.585 38.6079 104.41 38.6079ZM120.941 50.7326C118.654 50.7326 116.68 48.8452 116.68 46.1572C116.68 43.4406 118.654 41.5824 120.941 41.5824C123.229 41.5824 125.202 43.4406 125.202 46.1572C125.202 48.8452 123.229 50.7326 120.941 50.7326ZM120.941 38.6079C116.766 38.6079 113.364 41.7819 113.364 46.1572C113.364 50.5038 116.766 53.7065 120.941 53.7065C125.117 53.7065 128.519 50.5038 128.519 46.1572C128.519 41.7819 125.117 38.6079 120.941 38.6079Z" fill="white"></path><path d="M36.7664 34.4768L17.8701 54.5339C17.8708 54.538 17.8722 54.5415 17.8729 54.5458C18.4524 56.7237 20.4418 58.3274 22.8027 58.3274C23.7464 58.3274 24.6325 58.0723 25.3924 57.6243L25.4527 57.589L46.724 45.3145L36.7664 34.4768Z" fill="#EB3131"></path><path d="M55.8868 31.0637L55.8687 31.0513L46.6852 25.7275L36.3389 34.9342L46.7211 45.3151L55.8561 40.0443C57.4577 39.1797 58.5449 37.4913 58.5449 35.5443C58.5449 33.6113 57.4724 31.9312 55.8868 31.0637Z" fill="#F6B60B"></path><path d="M17.8686 16.4668C17.755 16.8857 17.6953 17.3245 17.6953 17.7801V53.2229C17.6953 53.6777 17.7543 54.1179 17.8693 54.5353L37.4179 34.9908L17.8686 16.4668Z" fill="#5778C5"></path><path d="M36.9065 35.5016L46.6879 25.7232L25.4406 13.4043C24.6683 12.9418 23.7669 12.6748 22.8024 12.6748C20.4415 12.6748 18.4495 14.2814 17.8699 16.4619C17.8691 16.464 17.8691 16.4655 17.8691 16.4674L36.9065 35.5016Z" fill="#3BAD49"></path><path d="M84.1223 17.3616H78.9442V18.643H82.8244C82.719 19.6887 82.3029 20.5096 81.6012 21.1059C80.8996 21.7023 80.0037 22.0017 78.9443 22.0017C77.7822 22.0017 76.7976 21.5969 75.9907 20.7926C75.2001 19.9717 74.7981 18.9565 74.7981 17.7335C74.7981 16.5105 75.2001 15.4953 75.9907 14.6744C76.7976 13.8702 77.7822 13.468 78.9443 13.468C79.5407 13.468 80.1092 13.5706 80.6305 13.7953C81.152 14.0198 81.5707 14.3333 81.898 14.7355L82.8826 13.7509C82.436 13.2433 81.8703 12.8551 81.1684 12.5721C80.4668 12.2892 79.7346 12.1534 78.9441 12.1534C77.3938 12.1534 76.0793 12.6914 75.0059 13.7648C73.9326 14.8408 73.3945 16.1666 73.3945 17.7335C73.3945 19.3004 73.9325 20.629 75.0059 21.7024C76.0793 22.7756 77.3938 23.3138 78.9441 23.3138C80.5721 23.3138 81.8701 22.7923 82.8686 21.7328C83.7478 20.851 84.197 19.6584 84.197 18.1663C84.197 17.9139 84.1666 17.6446 84.1223 17.3616ZM86.1282 12.3917V23.0751H92.3656V21.7632H87.5011V18.3742H91.8887V17.0928H87.5011V13.7064H92.3656V12.3917L86.1282 12.3917ZM101.112 13.7064V12.3917H93.7705V13.7064H96.7548V23.0751H98.1276V13.7064H101.112ZM107.758 12.3917H106.385V23.0751H107.758V12.3917ZM116.82 13.7064V12.3917H109.479V13.7064H112.463V23.0751H113.835V13.7064H116.82ZM130.673 13.7813C129.614 12.6913 128.316 12.1533 126.765 12.1533C125.212 12.1533 123.914 12.6913 122.855 13.7647C121.795 14.8242 121.274 16.1526 121.274 17.7334C121.274 19.3142 121.795 20.6428 122.855 21.7023C123.914 22.7755 125.212 23.3137 126.765 23.3137C128.302 23.3137 129.614 22.7755 130.673 21.7023C131.733 20.6428 132.254 19.3143 132.254 17.7334C132.254 16.1665 131.733 14.8406 130.673 13.7813ZM123.839 14.6743C124.63 13.8701 125.601 13.4679 126.765 13.4679C127.927 13.4679 128.898 13.8701 129.675 14.6743C130.465 15.4648 130.853 16.4963 130.853 17.7334C130.853 18.9732 130.465 20.002 129.675 20.7925C128.898 21.5968 127.927 22.0016 126.765 22.0016C125.601 22.0016 124.63 21.5968 123.839 20.7925C123.065 19.9854 122.677 18.9732 122.677 17.7334C122.677 16.4964 123.065 15.4814 123.839 14.6743ZM135.516 16.4217L135.457 14.3608H135.516L140.946 23.075H142.38V12.3916H141.007V18.6429L141.065 20.7037H141.007L135.815 12.3916H134.143V23.075H135.516V16.4217Z" fill="white" stroke="white" stroke-width="0.355" stroke-miterlimit="10"></path></svg>